<svg xmlns="http://www.w3.org/2000/svg" viewBox="0 0 550.9 550.9" fill="none">
  <rect width="550.9" height="550.9" rx="120" fill="white"/>
  <path fill="#111111" d="M275.15 133.5c-102.2 0-185.4 28.8-185.4 63.6l43.5 304.8c0 26.899 63.6 49 142 49 78.4 0 142-22 142-49l42.8-304.8c0-35.4-83.199-63.6-185.4-63.6Zm0 108.3c-53.9 0-102.2-8-136.5-20.8l42.2 299.9c-6.7-1.801-12.9-4.301-18.4-6.7l-42.8-301.7c-6.1-3.1-11.6-6.7-15.9-10.4 28.2-22.6 94.2-39.2 170.7-39.2 76.5 0 142.6 15.9 170.7 39.2-27.4 23.2-92.9 39.7-170 39.7ZM469.15 169c-3.101-4.3-6.7-8.6-11-11.6-8-6.7-17.7-12.2-28.2-16.5-19.6-63.1-77.7-108.4-147.5-108.4h-14c-69.8 0-127.9 45.3-147.5 108.3-11 4.9-20.2 9.8-28.2 16.5-4.3 3.7-8 7.3-11 11.6C90.35 74 169.85 0 267.15 0h16.5c96.8.1 176.3 74.2 185.5 169Z"/>
</svg>
